<?xml version="1.0" encoding="utf-8"?>
<svg xmlns="http://www.w3.org/2000/svg" xmlns:xlink="http://www.w3.org/1999/xlink">
    <symbol viewBox="0 0 32 32" id="search">
          <path fill-rule="evenodd" clip-rule="evenodd" d="M9.5 3C11.2239 3 12.8772 3.68482 14.0962 4.90381C15.3152 6.12279 16 7.77609 16 9.5C16 11.11 15.41 12.59 14.44 13.73L14.71 14H15.5L20.5 19L19 20.5L14 15.5V14.71L13.73 14.44C12.5505 15.4468 11.0507 15.9999 9.5 16C7.77609 16 6.12279 15.3152 4.90381 14.0962C3.68482 12.8772 3 11.2239 3 9.5C3 7.77609 3.68482 6.12279 4.90381 4.90381C6.12279 3.68482 7.77609 3 9.5 3ZM9.5 5C7 5 5 7 5 9.5C5 12 7 14 9.5 14C12 14 14 12 14 9.5C14 7 12 5 9.5 5Z"/>
    </symbol>
    <symbol viewBox="0 0 24 24" id="btn-arrow">
        <path fill-rule="evenodd" clip-rule="evenodd" d="M8.58984 16.58L13.1698 12L8.58984 7.41L9.99984 6L15.9998 12L9.99984 18L8.58984 16.58Z" />
    </symbol>
    <symbol id="rating-star" viewBox="0 0 24 24">
        <path fill-rule="evenodd" clip-rule="evenodd" d="M12 17.27L18.18 21L16.54 13.97L22 9.24L14.81 8.62L12 2L9.19 8.62L2 9.24L7.45 13.97L5.82 21L12 17.27Z"/>
    </symbol>
    <symbol id="facebook" viewBox="0 0 16 16">
        <path fill-rule="evenodd" clip-rule="evenodd" d="M10.4678 10.125L11.001 6.86742H7.6669V4.75348C7.6669 3.86227 8.13265 2.99355 9.6259 2.99355H11.1416V0.220078C11.1416 0.220078 9.76615 0 8.45102 0C5.70527 0 3.91052 1.56023 3.91052 4.38469V6.86742H0.858398V10.125H3.91052V18H7.6669V10.125H10.4678Z"/>
    </symbol>
    <symbol id="twitter" viewBox="0 0 16 16">
        <path fill-rule="evenodd" clip-rule="evenodd" d="M16.1497 5.33381C16.1611 5.4937 16.1611 5.65363 16.1611 5.81352C16.1611 10.6904 12.4492 16.3097 5.66497 16.3097C3.57486 16.3097 1.63325 15.7043 0 14.6536C0.296965 14.6879 0.582469 14.6993 0.890859 14.6993C2.61545 14.6993 4.20303 14.1168 5.4708 13.1232C3.84898 13.0889 2.48984 12.0267 2.02155 10.5648C2.25 10.599 2.47841 10.6219 2.71828 10.6219C3.04949 10.6219 3.38073 10.5762 3.68909 10.4963C1.99874 10.1536 0.730934 8.66884 0.730934 6.8757V6.83003C1.22203 7.10414 1.79314 7.27546 2.39843 7.29827C1.40477 6.63582 0.753785 5.50513 0.753785 4.22593C0.753785 3.54067 0.936492 2.9125 1.25631 2.36427C3.0723 4.60284 5.80201 6.06475 8.86289 6.22467C8.8058 5.95056 8.77152 5.66506 8.77152 5.37952C8.77152 3.3465 10.4162 1.69043 12.4606 1.69043C13.5228 1.69043 14.4822 2.13586 15.156 2.8554C15.9898 2.69551 16.7893 2.38712 17.4974 1.96454C17.2233 2.82116 16.6408 3.5407 15.8756 3.99752C16.618 3.91761 17.3375 3.71198 17.9999 3.42648C17.4975 4.15741 16.8693 4.8084 16.1497 5.33381Z"/>
    </symbol>
    <symbol id="pinterest" viewBox="0 0 16 16">
        <path fill-rule="evenodd" clip-rule="evenodd" d="M7.4375 0.228516C3.69687 0.228516 0 2.6332 0 6.525C0 9 1.44375 10.4062 2.31875 10.4062C2.67969 10.4062 2.8875 9.43594 2.8875 9.16172C2.8875 8.83477 2.02344 8.13867 2.02344 6.77813C2.02344 3.95156 4.25469 1.94766 7.14219 1.94766C9.625 1.94766 11.4625 3.3082 11.4625 5.80781C11.4625 7.67461 10.6859 11.1762 8.17031 11.1762C7.2625 11.1762 6.48594 10.5434 6.48594 9.63633C6.48594 8.30742 7.44844 7.0207 7.44844 5.64961C7.44844 3.32227 4.025 3.74414 4.025 6.55664C4.025 7.14727 4.10156 7.80117 4.375 8.33906C3.87187 10.4273 2.84375 13.5387 2.84375 15.6902C2.84375 16.3547 2.94219 17.0086 3.00781 17.673C3.13177 17.8066 3.06979 17.7926 3.25937 17.7258C5.09687 15.3 5.03125 14.8254 5.8625 11.6508C6.31094 12.4734 7.47031 12.9164 8.38906 12.9164C12.2609 12.9164 14 9.27773 14 5.99766C14 2.50664 10.8719 0.228516 7.4375 0.228516Z"/>
    </symbol>
    <symbol id="arrow-bottom" viewBox="0 0 16 16">
        <path fill-rule="evenodd" clip-rule="evenodd" d="M1.42 0L6 4.32659L10.59 0L12 1.33198L6 7L0 1.33198L1.42 0Z"/>
    </symbol>
    <symbol id="burger-btn" viewBox="0 0 24 24">
        <path fill-rule="evenodd" clip-rule="evenodd" d="M3 18V16H21V18H3ZM3 13V11H21V13H3ZM3 8V6H21V8H3Z"/>
    </symbol>
    <symbol id="close-btn" viewBox="0 0 10 10">
        <path fill-rule="evenodd" clip-rule="evenodd" d="M1 10L0 9L4 5L0 1L1 0L5 4L9 0L10 1L6 5L10 9L9 10L5 6L1 10Z"/>
    </symbol>
</svg>