<?xml version="1.0" encoding="utf-8"?>
<svg xmlns="http://www.w3.org/2000/svg" xmlns:xlink="http://www.w3.org/1999/xlink">
    <symbol id="search" viewBox="0 0 24 24">
        <path fill-rule="evenodd" clip-rule="evenodd" d="M9.5 3C11.2239 3 12.8772 3.68482 14.0962 4.90381C15.3152 6.12279 16 7.77609 16 9.5C16 11.11 15.41 12.59 14.44 13.73L14.71 14H15.5L20.5 19L19 20.5L14 15.5V14.71L13.73 14.44C12.5505 15.4468 11.0507 15.9999 9.5 16C7.77609 16 6.12279 15.3152 4.90381 14.0962C3.68482 12.8772 3 11.2239 3 9.5C3 7.77609 3.68482 6.12279 4.90381 4.90381C6.12279 3.68482 7.77609 3 9.5 3ZM9.5 5C7 5 5 7 5 9.5C5 12 7 14 9.5 14C12 14 14 12 14 9.5C14 7 12 5 9.5 5Z"/>
    </symbol>
    <symbol id="btn-arrow" viewBox="0 0 24 24" >
        <path fill-rule="evenodd" clip-rule="evenodd" d="M8.58984 16.58L13.1698 12L8.58984 7.41L9.99984 6L15.9998 12L9.99984 18L8.58984 16.58Z" />
    </symbol>
    <symbol id="rating-star" viewBox="0 0 24 24">
        <path fill-rule="evenodd" clip-rule="evenodd" d="M12 17.27L18.18 21L16.54 13.97L22 9.24L14.81 8.62L12 2L9.19 8.62L2 9.24L7.45 13.97L5.82 21L12 17.27Z"/>
    </symbol>
    <symbol id="arrow-bottom" viewBox="0 0 24 24">
        <path fill-rule="evenodd" clip-rule="evenodd" d="M12 16.4142L19.4142 9L18 7.58578L12 13.5858L6.00003 7.58578L4.58582 9L12 16.4142Z"/>
    </symbol>
    <symbol id="burger-btn" viewBox="0 0 24 24">
        <path fill-rule="evenodd" clip-rule="evenodd" d="M3 18V16H21V18H3ZM3 13V11H21V13H3ZM3 8V6H21V8H3Z"/>
    </symbol>
    <symbol id="close-btn" viewBox="0 0 10 10">
        <path fill-rule="evenodd" clip-rule="evenodd" d="M1 10L0 9L4 5L0 1L1 0L5 4L9 0L10 1L6 5L10 9L9 10L5 6L1 10Z"/>
    </symbol>
    <symbol id="github" viewBox="0 0 24 24">
        <path fill-rule="evenodd" clip-rule="evenodd" d="M12.0083 2.16663C6.47396 2.16663 2 6.67357 2 12.2493C2 16.7062 4.86662 20.4789 8.84338 21.8142C9.34058 21.9146 9.5227 21.5973 9.5227 21.3303C9.5227 21.0966 9.50631 20.2954 9.50631 19.4606C6.72225 20.0616 6.14249 18.2587 6.14249 18.2587C5.69508 17.0901 5.03215 16.7898 5.03215 16.7898C4.12092 16.1721 5.09852 16.1721 5.09852 16.1721C6.1093 16.2389 6.63969 17.2071 6.63969 17.2071C7.53432 18.7427 8.97592 18.3088 9.55588 18.0417C9.63865 17.3907 9.90394 16.94 10.1856 16.6896C7.96514 16.4559 5.62891 15.5879 5.62891 11.715C5.62891 10.6132 6.02634 9.71186 6.65608 9.01082C6.55672 8.76048 6.20866 7.72532 6.75564 6.33985C6.75564 6.33985 7.60069 6.07271 9.5061 7.3748C10.3219 7.1541 11.1632 7.04183 12.0083 7.04088C12.8533 7.04088 13.7148 7.15786 14.5102 7.3748C16.4159 6.07271 17.2609 6.33985 17.2609 6.33985C17.8079 7.72532 17.4596 8.76048 17.3603 9.01082C18.0066 9.71186 18.3876 10.6132 18.3876 11.715C18.3876 15.5879 16.0514 16.4391 13.8143 16.6896C14.179 17.0067 14.4936 17.6076 14.4936 18.5592C14.4936 19.9113 14.4773 20.9964 14.4773 21.3301C14.4773 21.5973 14.6596 21.9146 15.1566 21.8144C19.1333 20.4787 22 16.7062 22 12.2493C22.0163 6.67357 17.526 2.16663 12.0083 2.16663Z"/>
    </symbol>
    <symbol id="linkedin" viewBox="0 0 24 24">
        <path fill-rule="evenodd" clip-rule="evenodd" d="M21 4.32353V19.6765C21 20.0275 20.8606 20.3641 20.6123 20.6123C20.3641 20.8606 20.0275 21 19.6765 21H4.32353C3.97251 21 3.63586 20.8606 3.38765 20.6123C3.13944 20.3641 3 20.0275 3 19.6765V4.32353C3 3.97251 3.13944 3.63586 3.38765 3.38765C3.63586 3.13944 3.97251 3 4.32353 3H19.6765C20.0275 3 20.3641 3.13944 20.6123 3.38765C20.8606 3.63586 21 3.97251 21 4.32353ZM8.29412 9.88235H5.64706V18.3529H8.29412V9.88235ZM8.53235 6.97059C8.53375 6.77036 8.49569 6.57182 8.42035 6.3863C8.34502 6.20078 8.23387 6.03191 8.09328 5.88935C7.95268 5.74678 7.78537 5.6333 7.60091 5.5554C7.41646 5.47749 7.21846 5.43668 7.01824 5.43529H6.97059C6.5634 5.43529 6.17289 5.59705 5.88497 5.88497C5.59705 6.17289 5.43529 6.5634 5.43529 6.97059C5.43529 7.37777 5.59705 7.76828 5.88497 8.05621C6.17289 8.34413 6.5634 8.50588 6.97059 8.50588C7.17083 8.51081 7.37008 8.47623 7.55696 8.40413C7.74383 8.33202 7.91467 8.2238 8.0597 8.08565C8.20474 7.94749 8.32113 7.78212 8.40223 7.59897C8.48333 7.41582 8.52755 7.21848 8.53235 7.01824V6.97059ZM18.3529 13.2071C18.3529 10.6606 16.7329 9.67059 15.1235 9.67059C14.5966 9.6442 14.0719 9.75644 13.6019 9.9961C13.1318 10.2358 12.7328 10.5945 12.4447 11.0365H12.3706V9.88235H9.88235V18.3529H12.5294V13.8476C12.4911 13.3862 12.6365 12.9283 12.9339 12.5735C13.2313 12.2186 13.6567 11.9954 14.1176 11.9524H14.2182C15.06 11.9524 15.6847 12.4818 15.6847 13.8159V18.3529H18.3318L18.3529 13.2071Z"/>
    </symbol>
    <symbol id="telegram" viewBox="0 0 24 24">
        <path fill-rule="evenodd" clip-rule="evenodd" d="M22 12C22 17.5228 17.5228 22 12 22C6.47715 22 2 17.5228 2 12C2 6.47715 6.47715 2 12 2C17.5228 2 22 6.47715 22 12ZM12.3583 9.38245C11.3857 9.78701 9.44176 10.6243 6.52656 11.8945C6.05318 12.0827 5.8052 12.2669 5.78262 12.4469C5.74447 12.7513 6.12558 12.8711 6.64454 13.0343C6.71513 13.0565 6.78828 13.0795 6.86326 13.1039C7.37385 13.2698 8.06067 13.464 8.41772 13.4717C8.7416 13.4787 9.10309 13.3452 9.50218 13.0711C12.2259 11.2325 13.632 10.3032 13.7202 10.2832C13.7825 10.269 13.8688 10.2512 13.9273 10.3032C13.9858 10.3552 13.98 10.4536 13.9738 10.48C13.9361 10.641 12.4401 12.0318 11.6659 12.7515C11.4246 12.9759 11.2534 13.135 11.2184 13.1714C11.14 13.2528 11.0601 13.3298 10.9833 13.4039C10.509 13.8611 10.1532 14.204 11.003 14.764C11.4113 15.0331 11.7381 15.2556 12.0641 15.4776C12.4201 15.7201 12.7752 15.9619 13.2347 16.2631C13.3517 16.3398 13.4635 16.4195 13.5724 16.4971C13.9867 16.7925 14.3589 17.0579 14.8188 17.0155C15.086 16.991 15.362 16.7397 15.5022 15.9903C15.8335 14.2193 16.4847 10.3821 16.6352 8.80082C16.6483 8.66229 16.6318 8.48499 16.6184 8.40716C16.6051 8.32932 16.5773 8.21843 16.4761 8.13634C16.3563 8.03912 16.1713 8.01862 16.0886 8.02008C15.7125 8.0267 15.1354 8.22736 12.3583 9.38245Z"/>
    </symbol>
    <symbol id="arrow-left" viewBox="0 0 10 16">
        <path fill-rule="evenodd" clip-rule="evenodd" d="M9.05181 0.943749L10 1.89062L6.9325 4.94375L3.86185 8L6.9325 11.0563L10 14.1094L9.04867 15.0562C8.52747 15.575 8.08477 16 8.06907 16C8.05024 16 6.2292 14.2 4.01884 12L0 8L4.01884 4C6.2292 1.8 8.05024 0 8.06907 0C8.08791 0 8.52747 0.425 9.05181 0.943749Z"/>
    </symbol>
    <symbol id="arrow-right" viewBox="0 0 10 16">
        <path fill-rule="evenodd" clip-rule="evenodd" d="M0.948195 0.943749L0 1.89062L3.0675 4.94375L6.13815 8L3.0675 11.0563L0 14.1094L0.951334 15.0562C1.47253 15.575 1.91523 16 1.93093 16C1.94976 16 3.7708 14.2 5.98116 12L10 8L5.98116 4C3.7708 1.8 1.94976 0 1.93093 0C1.91209 0 1.47253 0.425 0.948195 0.943749Z"/>
    </symbol>
</svg>