<svg width="38" height="38" viewBox="0 0 38 38" fill="none" xmlns="http://www.w3.org/2000/svg">
<path d="M18.4843 1.06515C18.6916 0.635183 19.3038 0.635183 19.511 1.06515L25.0908 12.6405C25.1466 12.7567 25.2405 12.8504 25.3565 12.9064L36.9307 18.4866C37.3606 18.6939 37.3606 19.3062 36.9307 19.5134L25.3565 25.0937C25.2405 25.1496 25.1466 25.2435 25.0908 25.3595L19.511 36.9349C19.3038 37.3649 18.6916 37.3649 18.4843 36.9349L12.9047 25.3595C12.8487 25.2435 12.755 25.1496 12.6388 25.0937L1.06463 19.5134C0.634706 19.3062 0.634706 18.6939 1.06463 18.4866L12.6388 12.9064C12.755 12.8504 12.8487 12.7567 12.9047 12.6405L18.4843 1.06515Z" fill="#67AD5B"/>
</svg>
