<svg width="292" height="38" viewBox="0 0 292 38" fill="none" xmlns="http://www.w3.org/2000/svg">
<g clip-path="url(#clip0_529_4902)">
<path d="M18.4843 1.06515C18.6916 0.635183 19.3038 0.635183 19.511 1.06515L25.0908 12.6405C25.1466 12.7567 25.2405 12.8504 25.3565 12.9064L36.9307 18.4866C37.3606 18.6939 37.3606 19.3062 36.9307 19.5134L25.3565 25.0937C25.2405 25.1496 25.1466 25.2435 25.0908 25.3595L19.511 36.9349C19.3038 37.3649 18.6916 37.3649 18.4843 36.9349L12.9047 25.3595C12.8487 25.2435 12.755 25.1496 12.6388 25.0937L1.06463 19.5134C0.634706 19.3062 0.634706 18.6939 1.06463 18.4866L12.6388 12.9064C12.755 12.8504 12.8487 12.7567 12.9047 12.6405L18.4843 1.06515Z" fill="#67AD5B"/>
<path d="M60.2086 11.133C59.2731 11.133 58.4429 11.3171 57.7178 11.6853C57.0033 12.043 56.3989 12.5637 55.905 13.2476C55.4215 13.9314 55.0537 14.7573 54.8016 15.7251C54.5493 16.693 54.4231 17.7819 54.4231 18.9918C54.4231 20.6224 54.6228 22.0164 55.0221 23.1737C55.4321 24.3203 56.0627 25.1989 56.914 25.809C57.7651 26.4086 58.8633 26.7085 60.2086 26.7085C61.1439 26.7085 62.0792 26.6034 63.0144 26.3929C63.9603 26.1825 64.9849 25.8827 66.0885 25.4934V29.5965C65.0691 30.0173 64.0654 30.3171 63.0775 30.4959C62.0896 30.6853 60.9809 30.78 59.7513 30.78C57.3762 30.78 55.4215 30.2907 53.8872 29.3124C52.3634 28.3235 51.2337 26.9452 50.4979 25.1778C49.7623 23.3998 49.3945 21.3273 49.3945 18.9602C49.3945 17.2138 49.6311 15.6147 50.1039 14.1628C50.5768 12.711 51.2704 11.4538 52.1848 10.3913C53.099 9.3287 54.2288 8.50809 55.574 7.92946C56.9191 7.35084 58.464 7.06152 60.2086 7.06152C61.354 7.06152 62.4996 7.20881 63.645 7.50339C64.801 7.78744 65.9044 8.18195 66.9554 8.68694L65.3791 12.6637C64.5174 12.2534 63.6503 11.8957 62.7781 11.5906C61.9057 11.2855 61.0493 11.133 60.2086 11.133Z" fill="#171717"/>
<path d="M91.9255 18.8971C91.9255 20.6751 91.7048 22.2952 91.2635 23.7576C90.8221 25.2094 90.1496 26.4613 89.2457 27.5134C88.3524 28.5654 87.2175 29.3756 85.8407 29.9437C84.4641 30.5013 82.8352 30.78 80.954 30.78C79.0728 30.78 77.4439 30.5013 76.0671 29.9437C74.6905 29.3756 73.5503 28.5654 72.6465 27.5134C71.7532 26.4613 71.0858 25.2041 70.6445 23.7419C70.203 22.2794 69.9824 20.654 69.9824 18.8656C69.9824 16.4774 70.3711 14.3996 71.1489 12.6322C71.9371 10.8542 73.1456 9.47605 74.7745 8.49765C76.4034 7.51924 78.4738 7.03003 80.9855 7.03003C83.4866 7.03003 85.5413 7.51924 87.1491 8.49765C88.7675 9.47605 89.9655 10.8542 90.7433 12.6322C91.5315 14.4101 91.9255 16.4985 91.9255 18.8971ZM75.1056 18.8971C75.1056 20.5067 75.3053 21.8954 75.7046 23.0632C76.1144 24.2205 76.7503 25.1148 77.612 25.746C78.4738 26.3667 79.5878 26.677 80.954 26.677C82.3412 26.677 83.4657 26.3667 84.3275 25.746C85.1892 25.1148 85.8144 24.2205 86.2033 23.0632C86.6027 21.8954 86.8023 20.5067 86.8023 18.8971C86.8023 16.4774 86.3504 14.5732 85.4466 13.1845C84.5429 11.7958 83.0557 11.1015 80.9855 11.1015C79.6087 11.1015 78.4842 11.4171 77.612 12.0483C76.7503 12.669 76.1144 13.5633 75.7046 14.731C75.3053 15.8883 75.1056 17.277 75.1056 18.8971Z" fill="#171717"/>
<path d="M106.46 30.4645L100.911 12.364H100.769C100.79 12.7953 100.822 13.4476 100.864 14.3208C100.916 15.1835 100.964 16.104 101.006 17.0824C101.048 18.0608 101.069 18.9446 101.069 19.7335V30.4645H96.7021V7.39307H103.355L108.809 25.0358H108.903L114.689 7.39307H121.341V30.4645H116.785V19.5443C116.785 18.8183 116.796 17.9819 116.817 17.0351C116.848 16.0882 116.885 15.1887 116.927 14.3366C116.969 13.4739 117.001 12.8269 117.022 12.3956H116.88L110.937 30.4645H106.46Z" fill="#171717"/>
<path d="M134.52 7.39307C137.494 7.39307 139.664 8.03481 141.03 9.31832C142.397 10.5913 143.08 12.3482 143.08 14.5891C143.08 15.5991 142.927 16.5669 142.623 17.4927C142.318 18.408 141.819 19.2234 141.125 19.9387C140.442 20.6541 139.528 21.2222 138.382 21.643C137.237 22.0534 135.823 22.2586 134.142 22.2586H132.045V30.4645H127.158V7.39307H134.52ZM134.268 11.4014H132.045V18.2502H133.653C134.567 18.2502 135.361 18.1292 136.033 17.8873C136.706 17.6453 137.226 17.2666 137.594 16.751C137.962 16.2355 138.146 15.5727 138.146 14.7627C138.146 13.6265 137.83 12.7848 137.2 12.2377C136.569 11.6802 135.592 11.4014 134.268 11.4014Z" fill="#171717"/>
<path d="M161.538 30.4645L159.868 24.9727H151.465L149.794 30.4645H144.529L152.663 7.29834H158.638L166.804 30.4645H161.538ZM158.701 20.8699L157.03 15.5043C156.925 15.1466 156.783 14.689 156.604 14.1314C156.436 13.5633 156.263 12.9899 156.084 12.4113C155.916 11.8221 155.779 11.3119 155.674 10.8806C155.569 11.3119 155.422 11.8484 155.233 12.4902C155.054 13.1214 154.881 13.7211 154.713 14.2892C154.544 14.8573 154.424 15.2623 154.35 15.5043L152.695 20.8699H158.701Z" fill="#171717"/>
<path d="M188.479 7.39307V22.3217C188.479 23.9103 188.127 25.3463 187.423 26.6297C186.729 27.9028 185.673 28.9128 184.254 29.6597C182.846 30.4066 181.07 30.7801 178.926 30.7801C175.878 30.7801 173.556 30.0017 171.959 28.4446C170.361 26.8876 169.562 24.8255 169.562 22.2586V7.39307H174.433V21.5168C174.433 23.421 174.822 24.7571 175.6 25.5251C176.378 26.2931 177.528 26.6771 179.052 26.6771C180.124 26.6771 180.991 26.4929 181.653 26.1247C182.326 25.7565 182.82 25.1884 183.135 24.4204C183.45 23.6524 183.608 22.6741 183.608 21.4853V7.39307H188.479Z" fill="#171717"/>
<path d="M203.013 30.4645H198.127V11.4645H191.869V7.39307H209.271V11.4645H203.013V30.4645Z" fill="#171717"/>
<path d="M233.737 18.8971C233.737 20.6751 233.516 22.2952 233.076 23.7576C232.633 25.2094 231.96 26.4613 231.056 27.5134C230.163 28.5654 229.029 29.3756 227.652 29.9437C226.276 30.5013 224.646 30.78 222.765 30.78C220.885 30.78 219.254 30.5013 217.879 29.9437C216.502 29.3756 215.362 28.5654 214.457 27.5134C213.565 26.4613 212.898 25.2041 212.455 23.7419C212.014 22.2794 211.794 20.654 211.794 18.8656C211.794 16.4774 212.183 14.3996 212.96 12.6322C213.749 10.8542 214.957 9.47605 216.585 8.49765C218.215 7.51924 220.284 7.03003 222.798 7.03003C225.298 7.03003 227.353 7.51924 228.961 8.49765C230.579 9.47605 231.776 10.8542 232.555 12.6322C233.343 14.4101 233.737 16.4985 233.737 18.8971ZM216.918 18.8971C216.918 20.5067 217.117 21.8954 217.516 23.0632C217.927 24.2205 218.561 25.1148 219.424 25.746C220.284 26.3667 221.399 26.677 222.765 26.677C224.152 26.677 225.277 26.3667 226.139 25.746C227 25.1148 227.625 24.2205 228.014 23.0632C228.413 21.8954 228.613 20.5067 228.613 18.8971C228.613 16.4774 228.163 14.5732 227.258 13.1845C226.354 11.7958 224.867 11.1015 222.798 11.1015C221.42 11.1015 220.296 11.4171 219.424 12.0483C218.561 12.669 217.927 13.5633 217.516 14.731C217.117 15.8883 216.918 17.277 216.918 18.8971Z" fill="#171717"/>
<path d="M238.513 30.4645V7.39307H243.401V30.4645H238.513Z" fill="#171717"/>
<path d="M269.647 30.4645H263.436L253.409 13.011H253.269C253.31 13.7369 253.347 14.4681 253.379 15.2045C253.409 15.941 253.442 16.6774 253.474 17.4138C253.504 18.1398 253.537 18.8709 253.567 19.6073V30.4645H249.201V7.39307H255.364L265.374 24.6729H265.484C265.464 23.9576 265.439 23.2474 265.407 22.5427C265.374 21.8378 265.344 21.1329 265.312 20.428C265.291 19.7231 265.27 19.0182 265.249 18.3133V7.39307H269.647V30.4645Z" fill="#171717"/>
<path d="M285.254 11.133C284.317 11.133 283.487 11.3171 282.763 11.6853C282.047 12.043 281.443 12.5637 280.949 13.2476C280.467 13.9314 280.098 14.7573 279.847 15.7251C279.595 16.693 279.467 17.7819 279.467 18.9918C279.467 20.6224 279.669 22.0164 280.068 23.1737C280.476 24.3203 281.107 25.1989 281.958 25.809C282.811 26.4086 283.909 26.7085 285.254 26.7085C286.189 26.7085 287.123 26.6034 288.06 26.3929C289.004 26.1825 290.03 25.8827 291.134 25.4934V29.5965C290.114 30.0173 289.111 30.3171 288.123 30.4959C287.135 30.6853 286.025 30.78 284.796 30.78C282.421 30.78 280.467 30.2907 278.931 29.3124C277.408 28.3235 276.279 26.9452 275.542 25.1778C274.807 23.3998 274.438 21.3273 274.438 18.9602C274.438 17.2138 274.676 15.6147 275.149 14.1628C275.622 12.711 276.315 11.4538 277.229 10.3913C278.143 9.3287 279.273 8.50809 280.619 7.92946C281.964 7.35084 283.508 7.06152 285.254 7.06152C286.4 7.06152 287.545 7.20881 288.691 7.50339C289.846 7.78744 290.95 8.18195 292 8.68694L290.423 12.6637C289.563 12.2534 288.695 11.8957 287.823 11.5906C286.951 11.2855 286.094 11.133 285.254 11.133Z" fill="#171717"/>
</g>
<defs>
<clipPath id="clip0_529_4902">
<rect width="292" height="38" fill="white"/>
</clipPath>
</defs>
</svg>
